<svg width="24" height="24" viewBox="0 0 24 24" fill="none" xmlns="http://www.w3.org/2000/svg">
<path d="M18 10.1562C17.8429 10.1563 17.559 10.2397 17.1592 10.4521C16.7803 10.6535 16.3699 10.9303 15.9834 11.2188C15.0052 11.9483 14.1565 12.8156 13.5127 13.8008C13.2669 14.1771 13.0344 14.5827 12.8643 14.9756C12.6911 15.3755 12.5996 15.725 12.5996 16H11.4004C11.4004 15.725 11.3089 15.3755 11.1357 14.9756C10.9655 14.5825 10.7314 14.1769 10.4854 13.7998C9.84246 12.815 8.99529 11.9482 8.01562 11.2188L8.01465 11.2178C7.62865 10.9294 7.21915 10.6534 6.84082 10.4521C6.44176 10.2399 6.15801 10.1563 6 10.1562V9C6.47786 9 6.98703 9.20969 7.4209 9.44043C7.8752 9.68206 8.33926 9.9978 8.75 10.3047C9.82728 11.1068 10.7752 12.0712 11.502 13.1846C11.6738 13.4479 11.8431 13.736 11.999 14.0322C12.155 13.7357 12.326 13.448 12.498 13.1846C13.2256 12.0714 14.1736 11.1067 15.249 10.3047C15.6604 9.99768 16.1254 9.68206 16.5801 9.44043C17.0139 9.2099 17.523 9 18 9V10.1562Z" fill="black"/>
</svg>
